# xmcd
# 
# Track frame offsets:
#     150
#     15639
#     35419
#     58900
#     91138
#     116208
#     140393
#     172146
#     190484
#     204947
#     229648
#     247850
#     276928
# 
# Disc length: 3969
# 
# Revision: 5
# Processed by: cddbd v1.5.2PL0 Copyright (c) Steve Scherf et al.
# Submitted via: fre:ac v1.0.31
# 
DISCID=b50f7f0d
DTITLE=The Isley Brothers With Santana - Power Of Peace
DYEAR=2017
DGENRE=R&B
TTITLE0=Are You Ready
TTITLE1=Total Destruction to Your Mind
TTITLE2=Higher Ground
TTITLE3=God Bless the Child
TTITLE4=I Remember
TTITLE5=Body Talk
TTITLE6=Gypsy Woman
TTITLE7=I Just Want to Make Love to You
TTITLE8=Love, Peace, Happiness
TTITLE9=What the World Needs Now is Love Sweet Love
TTITLE10=Mercy Mercy Me (The Ecology)
TTITLE11=Let the Rain Fall on Me
TTITLE12=Let There Be Peace on Earth
EXTD=Release-Date: 28.07.2017\n\nMARO\n
EXTT0=
EXTT1=
EXTT2=
EXTT3=
EXTT4=
EXTT5=
EXTT6=
EXTT7=
EXTT8=
EXTT9=
EXTT10=
EXTT11=
EXTT12=
PLAYORDER=
